Coordinates
version=1
nRows=14
nColumns=24
inDegrees=yes

Units are S.I. units (second, meters, Newtons, ...)
Angles are in degrees.

endheader
time	pelvis_tilt	pelvis_list	pelvis_rotation	pelvis_tx	pelvis_ty	pelvis_tz	hip_flexion_r	hip_adduction_r	hip_rotation_r	knee_angle_r	ankle_angle_r	subtalar_angle_r	mtp_angle_r	hip_flexion_l	hip_adduction_l	hip_rotation_l	knee_angle_l	ankle_angle_l	subtalar_angle_l	mtp_angle_l	lumbar_extension	lumbar_bending	lumbar_rotation
      1.51500000	     22.60203056	     -5.69020634	      3.58057110	     -0.20144476	      0.85854663	     -0.07048287	     -6.41828374	      5.26265833	    -19.10163617	    -28.08571969	     31.38514289	      6.33083829	     33.85510907	    -22.58931698	     -4.49897853	    -10.85271941	    -18.74655103	     29.57325529	     13.52542121	     29.50802657	    -37.10922064	      6.26498389	    -10.35823451
      1.52000000	     22.73556321	     -5.96906250	      3.77506035	     -0.19538715	      0.85839933	     -0.06999786	     -6.86086966	      5.92914415	    -19.48847142	    -24.57707184	     30.87116799	      6.57774427	     34.16041109	    -23.14905054	     -4.97207905	    -11.14484174	    -18.84479030	     29.98211985	     14.00950474	     29.37240431	    -37.20007460	      6.60044445	    -10.37056509
      1.52500000	     22.79902913	     -6.22559562	      3.96516863	     -0.18931640	      0.85802538	     -0.06938111	     -7.25443326	      6.60201623	    -19.84764038	    -21.01121320	     30.17338989	      6.67045642	     35.38179722	    -23.58999049	     -5.44399535	    -11.45885959	    -19.05327927	     30.56820365	     14.61035659	     28.90696491	    -37.21280113	      6.89569982	    -10.36618620
      1.53000000	     22.86413188	     -6.37838148	      4.16080763	     -0.18319554	      0.85757435	     -0.06876874	     -7.68138284	      7.16744555	    -20.30396655	    -17.44302340	     29.30776236	      6.92070898	     36.68193011	    -24.03838002	     -5.80458878	    -11.69888426	    -19.24541834	     30.99021564	     15.05423264	     28.43400301	    -37.21858680	      7.09236556	    -10.47239686
      1.53500000	     22.88443007	     -6.45094065	      4.34909103	     -0.17698002	      0.85695593	     -0.06817612	     -8.06631129	      7.64257947	    -20.83116480	    -13.97276312	     28.57281966	      7.44905279	     36.78007668	    -24.46924318	     -6.06072551	    -11.83559228	    -19.36060817	     31.39278595	     15.28243570	     28.43570021	    -37.16116296	      7.21576897	    -10.62299172
      1.54000000	     22.82611194	     -6.50931247	      4.44685627	     -0.17079452	      0.85611689	     -0.06725629	     -8.37722016	      8.12963904	    -21.13104848	    -10.51745435	     27.45199407	      7.59655504	     38.81304498	    -24.74632622	     -6.32544564	    -12.20461479	    -19.69814653	     31.87132597	     15.93766304	     28.01435618	    -37.03034966	      7.24827081	    -10.67978814
      1.54500000	     22.76894237	     -6.45862991	      4.52063056	     -0.16457499	      0.85518789	     -0.06641112	     -8.62714553	      8.45359520	    -21.62761810	     -7.41773050	     26.63110155	      8.33728465	     39.10726350	    -25.07087018	     -6.43273532	    -12.43885397	    -19.91943810	     32.23211676	     16.24605629	     27.98309829	    -36.89946188	      7.17807030	    -10.80494536
      1.55000000	     22.60360191	     -6.38852899	      4.56254901	     -0.15838003	      0.85404609	     -0.06548665	     -8.70125861	      8.73746288	    -22.11706922	     -4.58345152	     25.76194203	      9.07154631	     39.83733524	    -25.24130618	     -6.51897454	    -12.68804128	    -20.23375829	     32.65128110	     16.64368218	     27.89398644	    -36.65506108	      7.06946286	    -10.91710050
      1.55500000	     22.38952822	     -6.27675366	      4.62572413	     -0.15233636	      0.85276314	     -0.06458916	     -8.65149142	      8.95869046	    -22.68270048	     -2.03108970	     24.89247740	      9.83108576	     41.70930462	    -25.28683377	     -6.56904509	    -12.80655385	    -20.68405044	     33.13241383	     16.82612741	     27.55307735	    -36.37630416	      6.93366525	    -11.05220785
      1.56000000	     22.15100523	     -6.14810297	      4.65665888	     -0.14629507	      0.85144032	     -0.06363844	     -8.54373101	      9.14737068	    -23.19137559	      0.27160995	     24.12449725	     10.65393087	     41.78905916	    -25.32968224	     -6.58431874	    -12.90680718	    -21.07730996	     33.48856047	     17.02153684	     27.58409479	    -36.07504707	      6.76565298	    -11.16212406
      1.56500000	     21.89643073	     -6.02108892	      4.68126605	     -0.14026404	      0.85006987	     -0.06267864	     -8.37645469	      9.31591246	    -23.75077521	      2.31218781	     23.44889549	     11.72668535	     42.01809744	    -25.33102222	     -6.60898116	    -13.05318500	    -21.53190667	     33.86725716	     17.27510040	     27.60993150	    -35.75805406	      6.59818808	    -11.27020523
      1.57000000	     21.65393989	     -5.85343099	      4.67817621	     -0.13426156	      0.84873635	     -0.06173152	     -8.15716739	      9.40250331	    -24.43905696	      4.01444709	     22.90688761	     13.17572780	     42.80536825	    -25.35360304	     -6.57364820	    -13.16466650	    -21.97362655	     34.19729836	     17.54070767	     27.55136544	    -35.46135936	      6.38280115	    -11.35375027
      1.57500000	     21.40568887	     -5.72034139	      4.72366264	     -0.12834393	      0.84736307	     -0.06080117	     -7.93120376	      9.53318560	    -25.02884259	      5.56897530	     22.32668218	     14.33598425	     43.30933847	    -25.30171841	     -6.60952327	    -13.23986178	    -22.55145344	     34.58449407	     17.74508358	     27.55881579	    -35.16509679	      6.22702961	    -11.46875353
      1.58000000	     21.13862337	     -5.59826837	      4.75729366	     -0.12240074	      0.84601550	     -0.05989634	     -7.66704125	      9.64865360	    -25.61795967	      6.88906588	     21.79554355	     15.62193962	     43.87220808	    -25.25599415	     -6.63621795	    -13.26546518	    -23.05878558	     34.86853973	     17.88639006	     27.57198886	    -34.84646066	      6.08380838	    -11.52510143
